<svg width="13" height="14" viewBox="0 0 13 14" fill="none" xmlns="http://www.w3.org/2000/svg">
<path d="M6.79036 4.81149V7.1263L8.52648 8.86241M11.9987 7.1263C11.9987 7.81027 11.864 8.48754 11.6022 9.11944C11.3405 9.75135 10.9569 10.3255 10.4732 10.8091C9.98957 11.2928 9.41541 11.6764 8.78351 11.9382C8.1516 12.1999 7.47433 12.3346 6.79036 12.3346C6.1064 12.3346 5.42913 12.1999 4.79722 11.9382C4.16532 11.6764 3.59116 11.2928 3.10752 10.8091C2.62388 10.3255 2.24024 9.75135 1.97849 9.11944C1.71675 8.48754 1.58203 7.81027 1.58203 7.1263C1.58203 5.74497 2.13076 4.42021 3.10752 3.44345C4.08427 2.4667 5.40903 1.91797 6.79036 1.91797C8.1717 1.91797 9.49646 2.4667 10.4732 3.44345C11.45 4.42021 11.9987 5.74497 11.9987 7.1263Z" stroke="#15803D" stroke-width="2" stroke-linecap="round" stroke-linejoin="round"/>
</svg>
