<svg width="56" height="61" viewBox="0 0 56 61" fill="none" xmlns="http://www.w3.org/2000/svg">
<path d="M26.7192 41.3203C26.9818 39.8549 25.4062 37.7461 23.1742 35.5182C20.8874 33.2307 17.9004 30.8598 16.2372 29.9662C13.8629 28.5365 11.6746 29.7518 11.1713 32.6707C10.6242 35.7922 11.1713 38.7945 12.7578 41.4752C13.8739 43.3219 15.537 44.1797 17.5065 44.3346C18.7757 44.4061 23.2508 44.5967 24.2574 44.2154C25.5594 43.7031 26.4566 42.8096 26.7192 41.3203ZM49.1494 43.7984C49.0776 43.7335 48.9924 43.6888 48.9011 43.668C48.8099 43.6472 48.7153 43.6511 48.6257 43.6793C48.5361 43.7075 48.4542 43.7592 48.3872 43.8298C48.3202 43.9004 48.2701 43.9878 48.2412 44.0844C47.3659 47.1106 43.3504 57.4877 29.4108 58.56C13.0314 59.8109 38.1969 63.7545 45.3198 57.7975C47.8036 55.7244 50.528 53.6275 50.4186 47.6229C50.3748 46.4195 49.8825 44.443 49.1494 43.7984ZM55.9331 29.2156C55.9003 26.9639 54.9922 25.2363 53.0883 24.1879C52.771 24.033 52.5412 23.8662 52.4428 23.4254C51.7811 19.3864 50.268 15.5695 48.0224 12.275C47.902 12.0963 47.6394 11.8938 47.7817 11.6793C48.7117 10.3092 47.7489 9.53478 47.0158 8.77228C39.116 0.455467 29.9142 -1.9476 19.4103 1.56308C15.0227 3.02851 11.3245 5.80449 8.24992 9.59316C7.81226 10.1055 7.51683 10.6773 7.92167 11.3207C8.24992 11.7973 8.06391 12.0594 7.81226 12.4287C5.64583 15.7301 4.17967 19.3746 3.51223 23.3551C3.43564 23.8674 3.19493 24.0699 2.81197 24.2844C1.25828 25.1184 0.350129 26.4885 0.0875323 28.3352L0 31.4912V33.9813C0 37.6508 2.29772 39.9859 5.66771 39.8191C6.51021 39.7834 6.94787 39.3068 6.9807 38.449C7.19953 29.2156 6.7181 27.083 7.38554 23.4611C10.0772 8.62812 25.636 0.59923 37.7811 7.79413C45.0135 12.1559 48.7664 18.9469 48.9743 27.9766C49.0618 31.3363 48.9743 34.708 48.9743 38.0559C48.9743 38.8899 49.215 39.5451 50.0028 39.7477C52.6397 40.3434 55.3861 38.318 55.8237 35.3752C56.141 33.3379 55.9331 31.2648 55.9331 29.2156ZM38.4704 44.8826C42.4641 45.2162 44.9588 41.4871 44.8603 37.6746C44.6305 32.2895 37.617 35.7088 35.2536 36.7215C27.2444 40.0693 30.3299 43.2623 32.8246 43.9652L38.4704 44.8826Z" fill="#15803D"/>
</svg>
