<svg width="56" height="61" viewBox="0 0 56 61" fill="none" xmlns="http://www.w3.org/2000/svg">
<path d="M56 42.8906V2.85938C56 1.2748 54.6625 0 53 0H12C5.375 0 0 5.12305 0 11.4375V49.5625C0 55.877 5.375 61 12 61H53C54.6625 61 56 59.7252 56 58.1406V56.2344C56 55.3408 55.5625 54.5307 54.8875 54.0064C54.3625 52.1717 54.3625 46.9414 54.8875 45.1066C55.5625 44.5943 56 43.7842 56 42.8906ZM16 15.9648C16 15.5717 16.3375 15.25 16.75 15.25H43.25C43.6625 15.25 44 15.5717 44 15.9648V18.3477C44 18.7408 43.6625 19.0625 43.25 19.0625H16.75C16.3375 19.0625 16 18.7408 16 18.3477V15.9648ZM16 23.5898C16 23.1967 16.3375 22.875 16.75 22.875H43.25C43.6625 22.875 44 23.1967 44 23.5898V25.9727C44 26.3658 43.6625 26.6875 43.25 26.6875H16.75C16.3375 26.6875 16 26.3658 16 25.9727V23.5898ZM47.675 53.375H12C9.7875 53.375 8 51.6713 8 49.5625C8 47.4656 9.8 45.75 12 45.75H47.675C47.4375 47.7873 47.4375 51.3377 47.675 53.375Z" fill="#15803D"/>
</svg>
